<svg width="48" height="52" viewBox="0 0 48 52" fill="none" xmlns="http://www.w3.org/2000/svg">
<g clip-path="url(#clip0)">
<path fill-rule="evenodd" clip-rule="evenodd" d="M24.558 3.53934C24.1998 3.38655 23.8002 3.38655 23.442 3.53934L5.538 11.1619L12.75 14.2307L31.212 6.37184L24.558 3.53934ZM35.25 8.09306L16.788 15.9519L24 19.0207L42.462 11.1619L35.25 8.09306ZM45 13.5218L25.5 21.8245V47.1222L45 38.8195V13.525V13.5218ZM22.5 47.1254V21.8213L3 13.5218V38.8227L22.5 47.1254ZM22.329 0.572714C23.4017 0.116062 24.5983 0.116062 25.671 0.572714L47.058 9.68016C47.3361 9.79878 47.5744 10.0033 47.7423 10.2674C47.9102 10.5315 47.9999 10.843 48 11.1619V38.8227C47.9996 39.4608 47.8197 40.0842 47.4833 40.6124C47.147 41.1406 46.6697 41.5494 46.113 41.7861L24.558 50.9638C24.1998 51.1166 23.8002 51.1166 23.442 50.9638L1.89 41.7861C1.33275 41.5499 0.854827 41.1413 0.517926 40.613C0.181025 40.0848 0.000618988 39.4612 0 38.8227L0 11.1619C6.97198e-05 10.843 0.0898312 10.5315 0.257721 10.2674C0.425611 10.0033 0.663938 9.79878 0.942 9.68016L22.329 0.572714Z" fill="#81C784"/>
</g>
<defs>
<clipPath id="clip0">
<rect width="48" height="51.0938" fill="white"/>
</clipPath>
</defs>
</svg>
