<svg width="48" height="48" viewBox="0 0 48 48" fill="none" xmlns="http://www.w3.org/2000/svg">
<path d="M43.186 14.406C42.9582 13.5608 42.513 12.79 41.8947 12.1704C41.2765 11.5507 40.5067 11.1037 39.662 10.874C36.53 10.014 24 10 24 10C24 10 11.472 9.98601 8.33799 10.808C7.49384 11.0483 6.72563 11.5016 6.10712 12.1243C5.48861 12.747 5.04056 13.5183 4.80599 14.364C3.97999 17.496 3.97199 23.992 3.97199 23.992C3.97199 23.992 3.96399 30.52 4.78399 33.62C5.24399 35.334 6.59399 36.688 8.30999 37.15C11.474 38.01 23.97 38.024 23.97 38.024C23.97 38.024 36.5 38.038 39.632 37.218C40.477 36.9887 41.2475 36.5428 41.8673 35.9244C42.4871 35.306 42.9348 34.5365 43.166 33.692C43.994 30.562 44 24.068 44 24.068C44 24.068 44.04 17.538 43.186 14.406ZM19.992 30.01L20.002 18.01L30.416 24.02L19.992 30.01Z" fill="#81C784"/>
</svg>
