<svg width="48" height="48" viewBox="0 0 48 48" fill="none" xmlns="http://www.w3.org/2000/svg">
<path d="M41.894 16.61C41.8738 15.0952 41.5903 13.5955 41.056 12.178C40.5927 10.9823 39.8851 9.89637 38.9784 8.98964C38.0716 8.0829 36.9857 7.37528 35.79 6.91198C34.3907 6.38669 32.9124 6.10266 31.418 6.07198C29.494 5.98598 28.884 5.96198 24 5.96198C19.116 5.96198 18.49 5.96198 16.58 6.07198C15.0863 6.10288 13.6087 6.38691 12.21 6.91198C11.0141 7.37495 9.92806 8.08246 9.02128 8.98924C8.11451 9.89602 7.407 10.9821 6.94402 12.178C6.41768 13.5762 6.13426 15.0542 6.10602 16.548C6.02002 18.474 5.99402 19.084 5.99402 23.968C5.99402 28.852 5.99402 29.476 6.10602 31.388C6.13602 32.884 6.41802 34.36 6.94402 35.762C7.40777 36.9575 8.11581 38.0431 9.02289 38.9495C9.92997 39.8559 11.0161 40.5631 12.212 41.026C13.6069 41.5724 15.0848 41.8767 16.582 41.926C18.508 42.012 19.118 42.038 24.002 42.038C28.886 42.038 29.512 42.038 31.422 41.926C32.9163 41.8965 34.3947 41.6132 35.794 41.088C36.9894 40.6241 38.075 39.9163 38.9817 39.0097C39.8884 38.103 40.5962 37.0174 41.06 35.822C41.586 34.422 41.868 32.946 41.898 31.448C41.984 29.524 42.01 28.914 42.01 24.028C42.006 19.144 42.006 18.524 41.894 16.61ZM23.988 33.204C18.88 33.204 14.742 29.066 14.742 23.958C14.742 18.85 18.88 14.712 23.988 14.712C26.4402 14.712 28.792 15.6861 30.5259 17.4201C32.2599 19.154 33.234 21.5058 33.234 23.958C33.234 26.4102 32.2599 28.7619 30.5259 30.4959C28.792 32.2298 26.4402 33.204 23.988 33.204ZM33.602 16.526C32.408 16.526 31.446 15.562 31.446 14.37C31.446 14.087 31.5018 13.8067 31.6101 13.5453C31.7184 13.2838 31.8771 13.0463 32.0772 12.8462C32.2773 12.646 32.5149 12.4873 32.7763 12.379C33.0378 12.2707 33.318 12.215 33.601 12.215C33.884 12.215 34.1642 12.2707 34.4257 12.379C34.6872 12.4873 34.9247 12.646 35.1248 12.8462C35.3249 13.0463 35.4837 13.2838 35.592 13.5453C35.7003 13.8067 35.756 14.087 35.756 14.37C35.756 15.562 34.792 16.526 33.602 16.526Z" fill="#81C784"/>
<path d="M23.988 29.964C27.305 29.964 29.994 27.275 29.994 23.958C29.994 20.641 27.305 17.952 23.988 17.952C20.671 17.952 17.982 20.641 17.982 23.958C17.982 27.275 20.671 29.964 23.988 29.964Z" fill="#81C784"/>
</svg>
