<svg width="56" height="56" viewBox="0 0 56 56" fill="none" xmlns="http://www.w3.org/2000/svg">
<path d="M18.3333 13.6667C18.3333 14.9043 17.8417 16.0913 16.9665 16.9665C16.0913 17.8417 14.9043 18.3333 13.6667 18.3333C12.429 18.3333 11.242 17.8417 10.3668 16.9665C9.49167 16.0913 9 14.9043 9 13.6667C9 12.429 9.49167 11.242 10.3668 10.3668C11.242 9.49167 12.429 9 13.6667 9C14.9043 9 16.0913 9.49167 16.9665 10.3668C17.8417 11.242 18.3333 12.429 18.3333 13.6667Z" fill="#81C784"/>
<path d="M18.3333 27.6667C18.3333 28.9043 17.8417 30.0913 16.9665 30.9665C16.0913 31.8417 14.9043 32.3333 13.6667 32.3333C12.429 32.3333 11.242 31.8417 10.3668 30.9665C9.49167 30.0913 9 28.9043 9 27.6667C9 26.429 9.49167 25.242 10.3668 24.3668C11.242 23.4917 12.429 23 13.6667 23C14.9043 23 16.0913 23.4917 16.9665 24.3668C17.8417 25.242 18.3333 26.429 18.3333 27.6667Z" fill="#81C784"/>
<path d="M13.6667 46.3333C14.9043 46.3333 16.0913 45.8417 16.9665 44.9665C17.8417 44.0913 18.3333 42.9043 18.3333 41.6667C18.3333 40.429 17.8417 39.242 16.9665 38.3668C16.0913 37.4917 14.9043 37 13.6667 37C12.429 37 11.242 37.4917 10.3668 38.3668C9.49167 39.242 9 40.429 9 41.6667C9 42.9043 9.49167 44.0913 10.3668 44.9665C11.242 45.8417 12.429 46.3333 13.6667 46.3333Z" fill="#81C784"/>
<path d="M32.3333 13.6667C32.3333 14.9043 31.8417 16.0913 30.9665 16.9665C30.0913 17.8417 28.9043 18.3333 27.6667 18.3333C26.429 18.3333 25.242 17.8417 24.3668 16.9665C23.4917 16.0913 23 14.9043 23 13.6667C23 12.429 23.4917 11.242 24.3668 10.3668C25.242 9.49167 26.429 9 27.6667 9C28.9043 9 30.0913 9.49167 30.9665 10.3668C31.8417 11.242 32.3333 12.429 32.3333 13.6667Z" fill="#81C784"/>
<path d="M27.6667 32.3333C28.9043 32.3333 30.0913 31.8417 30.9665 30.9665C31.8417 30.0913 32.3333 28.9043 32.3333 27.6667C32.3333 26.429 31.8417 25.242 30.9665 24.3668C30.0913 23.4917 28.9043 23 27.6667 23C26.429 23 25.242 23.4917 24.3668 24.3668C23.4917 25.242 23 26.429 23 27.6667C23 28.9043 23.4917 30.0913 24.3668 30.9665C25.242 31.8417 26.429 32.3333 27.6667 32.3333Z" fill="#81C784"/>
<path d="M32.3333 41.6667C32.3333 42.9043 31.8417 44.0913 30.9665 44.9665C30.0913 45.8417 28.9043 46.3333 27.6667 46.3333C26.429 46.3333 25.242 45.8417 24.3668 44.9665C23.4917 44.0913 23 42.9043 23 41.6667C23 40.429 23.4917 39.242 24.3668 38.3668C25.242 37.4917 26.429 37 27.6667 37C28.9043 37 30.0913 37.4917 30.9665 38.3668C31.8417 39.242 32.3333 40.429 32.3333 41.6667Z" fill="#81C784"/>
<path d="M41.6667 18.3333C42.9043 18.3333 44.0913 17.8417 44.9665 16.9665C45.8417 16.0913 46.3333 14.9043 46.3333 13.6667C46.3333 12.429 45.8417 11.242 44.9665 10.3668C44.0913 9.49167 42.9043 9 41.6667 9C40.429 9 39.242 9.49167 38.3668 10.3668C37.4917 11.242 37 12.429 37 13.6667C37 14.9043 37.4917 16.0913 38.3668 16.9665C39.242 17.8417 40.429 18.3333 41.6667 18.3333Z" fill="#81C784"/>
<path d="M46.3333 27.6667C46.3333 28.9043 45.8417 30.0913 44.9665 30.9665C44.0913 31.8417 42.9043 32.3333 41.6667 32.3333C40.429 32.3333 39.242 31.8417 38.3668 30.9665C37.4917 30.0913 37 28.9043 37 27.6667C37 26.429 37.4917 25.242 38.3668 24.3668C39.242 23.4917 40.429 23 41.6667 23C42.9043 23 44.0913 23.4917 44.9665 24.3668C45.8417 25.242 46.3333 26.429 46.3333 27.6667Z" fill="#81C784"/>
<path d="M41.6667 46.3333C42.9043 46.3333 44.0913 45.8417 44.9665 44.9665C45.8417 44.0913 46.3333 42.9043 46.3333 41.6667C46.3333 40.429 45.8417 39.242 44.9665 38.3668C44.0913 37.4917 42.9043 37 41.6667 37C40.429 37 39.242 37.4917 38.3668 38.3668C37.4917 39.242 37 40.429 37 41.6667C37 42.9043 37.4917 44.0913 38.3668 44.9665C39.242 45.8417 40.429 46.3333 41.6667 46.3333Z" fill="#81C784"/>
</svg>
