<svg xmlns="http://www.w3.org/2000/svg" width="566.435" height="609.968" viewBox="0 0 566.435 609.968">
  <g id="Group_3" data-name="Group 3" transform="translate(3026 -6669.269)">
    <g id="Scene_Plants" data-name="Scene/Plants" transform="translate(-3026 6669.269)">
      <g id="Background_Shape_2" data-name="Background Shape 2" transform="translate(129.165 363.731)" opacity="0.505">
        <path id="Background_Shape" data-name="Background Shape" d="M437.079,153.8c6.374,68.74-148.205,113.577-281.255,82.286S-38.263,82.6,25.226,17.489,430.705,85.055,437.079,153.8Z" transform="translate(0 0)" fill="#f2f2f2"/>
      </g>
      <path id="Leaf_Bottom" data-name="Leaf Bottom" d="M0,260a46.774,46.774,0,0,1-1,6A17.922,17.922,0,0,0,0,260Zm-10.832-47.012c-5.818-12.326-14.116-22.979-23.677-32.458,1.911-6.943,20.49-17.785,8.743-23.526-6.238-3.035-12.155,2.853-13.171,8.813-.7,4.1.956,9.109,2.633,12.961q-4.5-4.328-9.309-8.347c-4.416-3.7-8.927-7.286-13.477-10.821,6.819-7.114,12.6-26.731,2.816-29.377-14.443-3.894-6.229,22.02-4.981,26.893a.772.772,0,0,0,.649-.285c-.056.455-.123.942-.211,1.435-8.7-6.726-17.527-13.3-26.086-20.21.708-.583,1.77-2.724,2.632-3.88a42.082,42.082,0,0,0,5.1-8.312c2.052-4.734,3.879-12.21-2.344-14.605-6.768-2.611-9.474,5.878-9.26,10.847.148,3.435,1.255,6.649,1.918,9.99.208,1.042-.131,5.8,1.193,3.695a10.144,10.144,0,0,0,.044,1.682q-2.3-1.87-4.581-3.779a1.777,1.777,0,0,0,.1-.578,1.718,1.718,0,0,0-2.542-1.488q-3.006-2.572-5.947-5.23c-4.145-3.764-8.351-7.638-12.536-11.6.822-.784.427-1.79,1.19-2.616s2.322-1.341,3.228-2.119a22.871,22.871,0,0,0,5.4-7.423c2.125-4.459,4.688-13.714-2.292-15.421-7.2-1.762-10.332,7.182-10.5,12.68a139.867,139.867,0,0,0,2.051,14.018c-7.744-7.367-15.382-15.03-22.35-22.869,1.982-.122,7.39-4.478,8.468-5.647,2.631-2.849,6.725-9.053,1.7-11.959-4.468-2.578-9.583,1.763-11.225,5.806a55.526,55.526,0,0,0-.965,9.49c-2.888-3.328-5.653-6.682-8.238-10.057q-2.587-3.366-4.874-6.922a3.235,3.235,0,0,0,.9-.988c7.144-1.6,15.745-13.329,7.073-16.8-4.128-1.65-8.3,2.42-10.109,5.668a41.933,41.933,0,0,0-1.256,6.512A135.132,135.132,0,0,1-165.713,41.24a1.576,1.576,0,0,0,1.152-1.525c3.395-2.178,6.071-3.984,8.313-7.949,1.393-2.462,3.841-8.051-.688-9.14-5.894-1.417-9.075,7.638-9.32,12.029-.029.509.05,1.984.14,3.334a1.95,1.95,0,0,0-.6.042c-1.617-5.363-2.969-10.811-4.1-16.278,3.115-1.185,2.79-17.85.557-20.108-4.992-5.056-7.916,2.779-7.452,6.815.547,4.759,2.939,8.989,5.717,12.709.3.393.218.378.259-.194a1.14,1.14,0,0,0,.307.624,72.434,72.434,0,0,0,.115,7.324,169.525,169.525,0,0,0,3.175,18.948q.513,2.272,1.137,4.5a36.977,36.977,0,0,0-7.568-4.316c-3.568-1.38-9.029-2.785-12.353.043a5.834,5.834,0,0,0-.208,8.733c2.958,2.978,8.055,2.6,11.848,2.092,1.715-.228,10.876-1.447,8.617-2.838a7.435,7.435,0,0,1,.915.379q.36,1.089.75,2.17c-.052.034-.1.071-.153.105.061-.031.1-.063.157-.094a84.537,84.537,0,0,0,10.573,20.282,19.879,19.879,0,0,0-4.828-1.022c-4.831-.355-14.731,3.9-9.028,10.012,5.468,5.856,13.137-1.136,18.931-2.348A273.561,273.561,0,0,0-129.7,107.418a1.558,1.558,0,0,0-.913.845c-2.7-1.2-5.533-2.958-7.991-3.347-3.547-.56-10.764-.634-13.25,2.645-3.059,4.032.6,6.985,4.492,7.523,5.643.781,12.812-2.332,18.091-4.458a1.777,1.777,0,0,0,1.658-.651c.117-.046.233-.09.347-.133,7.012,6.943,14.265,13.631,21.469,20.167h-.222a18.6,18.6,0,0,0-5.912-2.331c-4.862-.919-10.509-.628-14.224,3.049-3.7,3.661-4.757,9.782-.538,13.455,8.443,7.352,19.353-10.992,23.367-11.945,7.317,6.569,15.008,12.661,22.809,18.617a13.3,13.3,0,0,0-2.645-.4c-7.359-.317-24.077,9.562-14.627,17.923,8.235,7.286,16.522-8,22.562-13.515,7.347,5.547,14.73,11.051,21.927,16.795a20.034,20.034,0,0,0-11.392.67c-4.094,1.477-10.643,4.97-7.718,10.449,2.974,5.573,10.9,2.551,15,.517,2.238-1.109,6.655-4.688,10.613-6.305,11.515,9.785,21.619,20.7,29.519,33.763A120.977,120.977,0,0,1-5.583,236.788C-3.742,242.59-.207,252.312-.41,260,1.667,244.524-4.5,226.391-10.832,212.988ZM-172,29.766c-.613,0-2.912-6.215-3.636-7.135a20.724,20.724,0,0,0-8.2-5.945c-5.036-2.177-11.433.989-8.366,7.281,2.449,5.023,9.082,6.034,14.827,6.034C-175.412,30-173.553,29.882-172,29.766Z" transform="translate(206.657 165.832) rotate(3)" fill="#f2f2f2"/>
      <g id="Plant_Right" data-name="Plant Right" transform="translate(90 207.731)" opacity="0.298">
        <path id="Leaf_Me_Alone_" data-name="Leaf Me Alone!" d="M-66.9.04C-53.253.763-37.294,10.453-37.4,25.364c-.075,10.834-1.525,21.493-1.022,32.371a87.174,87.174,0,0,0,5.23,25.389C-30.365,91-23.543,98.168-22.436,106.38c.706,5.233-.744,12.337-2.981,17.148-2.721,5.849-1.563,5.486,2.052,11.014,7.084,10.833,13.331,21.835,17.257,34.3,5.655,17.949,8.437,38.528,3.693,57.027-.6,2.349-1.921,10.868-5.269,11.121-3.74.283-1.509-4.433-1.147-5.995,2.309-9.962,4.346-18.669,3.918-29.078C-6.568,161.751-32.2,132.709-47.151,97.2c-.834-1.838-2.545-6.185-3.75-9.062-1.9-4.541-3.41-12.96-6.262-16.478-5.37-6.628-1.121,6.009-.194,8.434,1.172,3.067,2.474,6.333,3.72,9.043,5.689,12.555,12.069,26.278,17.947,39.221-31.7,3.8-49.6-35.715-55.335-61.061C-95.75,46.414-98.986-1.587-66.9.04" transform="matrix(0.995, -0.105, 0.105, 0.995, 94.356, 108.736)" fill="#4caf50"/>
        <path id="Leaf_Me_Alone_2" data-name="Leaf Me Alone!" d="M101.805.121C78.983,1.932,64.331,16.992,57.511,38.056c-3.676,11.351-4.1,23.013-6.14,34.678-3.073,17.551-9.685,30.851-22.607,43.355a43.634,43.634,0,0,0-9.048,12.1A51.548,51.548,0,0,0,9.269,143.12c-3.4,7.5-4.362,16.508-.436,23.989,1.055,2.011,3.689,6.049,6.418,7.883C5.033,196.752-.585,220.584.048,244.386c.383,14.368,1.084,28.741,1.9,43.091.22,3.853,1.475,10.216,3.36,3.754,1.725-5.911-.438-15.189-.638-21.364-.974-30.081-1.806-57.431,10.576-85.536q1.948-4.418,4.109-8.766a2.913,2.913,0,0,0,.241-.165c.055.042.1.088.159.129.092-.163.217-.358.363-.575a7.753,7.753,0,0,0,1.112-1.559c1.1-1.522,2.341-3.31,2.348-4.289,0-.008,0-.019,0-.027A404.962,404.962,0,0,1,48.99,133.149c-.067.084,9.728-13.252,8.213-5.877-.73,3.554-7.935,10.323-10.845,14.087a350.971,350.971,0,0,0-20.277,29.25c-.845.486-2.039,2.871-2.9,4.647-.477.9-.922,1.807-1.359,2.6,22.257,7.354,39.57-7.459,51.376-24.687.014-.02.027-.041.04-.061,3.593-4.761,7.273-9.488,11.871-13.251,7.671-6.279,15.885-7.387,24.929-10.478,24.664-8.427,35.15-40.391,38.48-64.108C152.274,38.513,133.894-2.517,101.805.121" transform="translate(109 78)" fill="#81c784"/>
        <path id="Leaf_Me_Alone_3" data-name="Leaf Me Alone!" d="M98.087,2.282c-26.589,20.882-42.5,52.792-55.8,83.023-14.852,33.766-26.415,68.548-31.8,105.067-3.54,23.993-7.59,48.068-9.559,72.254a257.779,257.779,0,0,0-.884,25.861c.014.708.39,19.951,3.9,15.972,1.995-2.263-.353-19.956-.313-22.843a370.089,370.089,0,0,1,4.383-48.489c3.885-26.467,6.807-52.932,13.2-78.947a90.185,90.185,0,0,1,3.33-11.7c1.57-3.959.053-2.348,3.518-3.515,3.367-1.135,7.222-.364,10.764-1.884,14.049-6.03,23.5-25.263,30.518-37.769,8.021-14.3,13.872-29.93,18.971-45.449a336.062,336.062,0,0,0,9.4-34.547,92.5,92.5,0,0,1,2.607-11.168c.337-.963,1.575-2.575,1.662-3.457.185-1.867-.782-3.116-.655-4.689q-1.641,1.106-3.234,2.282" transform="translate(68.272 14.582) rotate(-8)" fill="#81c784"/>
        <path id="Base" d="M0,0A73,73,0,0,0,146,0" transform="translate(38 328)" fill="#81c784"/>
        <path id="Leaf_Me_Alone_4" data-name="Leaf Me Alone!" d="M76.483,91a11.207,11.207,0,0,1-7.65-2.688,15.352,15.352,0,0,1-4.122-6.626c-1.877-5.408-2.054-12.053-2.172-16.45C62.392,59.721,62,53.3,60.186,47.5a31.931,31.931,0,0,0-3.563-7.769,31.379,31.379,0,0,0-6.046-6.938c-1.234-1.067-2.55-2.082-3.823-3.064-1.136-.876-2.309-1.782-3.42-2.72l-.531-.447c-3.571-3-7.264-6.1-7.716-11.011-.252-2.727.187-4.732,1.306-5.959a5.652,5.652,0,0,1,4.422-1.571,18.19,18.19,0,0,1,3.757.46c.2.043.728.244,1.463.522,2.1.794,5.6,2.124,7.473,2.124.575,0,.953-.13,1.123-.385a1.117,1.117,0,0,0-.049-1.046c-.432-1.036-1.914-1.952-4.405-2.721-5.013-.545-9.746-1.035-12.565-1.035a9.33,9.33,0,0,0-1.823.13,27.633,27.633,0,0,0-13.45,7.5,47.763,47.763,0,0,0-9.281,13.386C7.395,38.59,5.232,51.546,4.446,58.233c-.213,1.811-.405,3.774-.589,6H0A130.161,130.161,0,0,1,1.43,49.776c1.095-6.476,3.876-18.963,10.2-29.828A44.266,44.266,0,0,1,21.592,7.824a27.7,27.7,0,0,1,13.828-6.2,20.47,20.47,0,0,1,2.23-.082c1.451,0,3.2.056,4.921.156A12.837,12.837,0,0,1,48.028.085C48.791.028,49.574,0,50.355,0A39.608,39.608,0,0,1,63.514,2.41,56.68,56.68,0,0,1,76.083,8.8a65.591,65.591,0,0,1,10.863,9.115A55.094,55.094,0,0,1,94.986,28.5c3.283,5.715,4.97,12.563,5.013,20.354a65.9,65.9,0,0,1-3.51,20.927,47.915,47.915,0,0,1-7.036,13.827c-3.776,4.853-8.079,7.34-12.788,7.394Z" transform="translate(113 264)" fill="#4caf50"/>
      </g>
      <g id="Top_Leaves" data-name="Top Leaves" transform="translate(103 -0.269)">
        <path id="Leaf" d="M79.46,129.914c.238-10.386-4.017-19.958-8.727-28.992-9.169-17.587-13.755-28.109-12.273-49,.872-12.284,1.914-25.263-4.356-36.418C49.539,7.385,39.963-1.305,29.851.164,13.844,3.81,4.908,19.062,1.482,34.206c-4.246,18.77.616,32.774,14.79,44.8,7.987,6.775,12.492,13.754,14.67,24.072,1.743,8.251,1.248,17.713,4.229,25.648,4.457,11.862,12.5,19.106,24.608,21.309-4.368-23.512-10.5-47.806-20.343-69.6-.883-2.157-7.23-11.377-4.589-13.706,2.909-2.564,7.71,12.178,7.672,12.086,2.789,6.551,5.142,13.314,7.4,20.1-.012,0-.025,0-.038,0q3.5,10.459,6.783,21.109C57.512,123,58.3,126,59,129.028c1.03,4.449,1.152,16.166,4.073,19.645a6.3,6.3,0,0,0,1.9,1.586c1.17,4.906,2.262,9.823,3.219,14.75,2.5,12.868,3.944,26.067,2.324,39.152-.473,3.819-5.332,17.1-3.722,20.492,2.943,6.2,4.6-3.362,5.226-6.207,5.193-23.562,3.316-45.683-2.35-68.751,5.209-3.588,9.687-15.573,9.784-19.781" transform="matrix(0.951, -0.309, 0.309, 0.951, 98.917, 24.827)" fill="#f2f2f2"/>
        <path id="Leaf-2" data-name="Leaf" d="M-32.43.111c7.6,1.112,14.777,10.72,18.317,17.126,4.381,7.927,7.437,16.971,9.739,25.678C-.581,57.258-.069,73.178-.022,87.868c.006,1.77.375,23.393-2.153,23.039-2.5-.351-.918-22.8-1.132-27.444-.455-9.919.225-19.7-2.1-29.494a93.487,93.487,0,0,0-12.4-28.455c-.716-1.124-2.232-5.3-3.954-4.338-1.684.944,2.981,6.511,3.644,7.593a95.882,95.882,0,0,1,7.078,14.061A74.094,74.094,0,0,1-5.511,71.283c-5.785.888-10.825-2.5-12.766-8.144-1.677-4.879-1.84-10.554-3.745-15.167a22.5,22.5,0,0,0-5.95-8.157C-34.7,33.8-41.73,32.293-43.737,22.306c-1.573-7.829.38-23.786,11.307-22.2" transform="matrix(0.53, -0.848, 0.848, 0.53, 70.222, 107.869)" fill="#f2f2f2"/>
        <path id="Leaf_Me_Alone_5" data-name="Leaf Me Alone!" d="M-46.737,55a6.893,6.893,0,0,0,4.674-1.624,9.265,9.265,0,0,0,2.518-4c1.146-3.267,1.255-7.284,1.327-9.943a39.821,39.821,0,0,1,1.437-10.722,18.817,18.817,0,0,1,5.87-8.888c.756-.647,1.562-1.262,2.342-1.857.692-.528,1.407-1.074,2.084-1.639l.307-.256.02-.016c2.181-1.813,4.435-3.688,4.711-6.653a4.6,4.6,0,0,0-.788-3.59,3.464,3.464,0,0,0-2.711-.96,11.231,11.231,0,0,0-2.3.278c-.121.026-.446.148-.9.316A17.682,17.682,0,0,1-32.7,6.723c-.353,0-.584-.079-.687-.235a.671.671,0,0,1,.032-.63c.264-.627,1.17-1.18,2.692-1.644,3.061-.33,5.952-.626,7.674-.626a5.756,5.756,0,0,1,1.116.079A16.933,16.933,0,0,1-13.657,8.2a28.866,28.866,0,0,1,5.67,8.09A61.282,61.282,0,0,1-2.726,35.2c.135,1.14.258,2.385.374,3.8H0a77.286,77.286,0,0,0-.884-8.915,55.666,55.666,0,0,0-6.23-18.027A26.821,26.821,0,0,0-13.2,4.729,17.014,17.014,0,0,0-21.649.979,12.676,12.676,0,0,0-23.01.93c-.889,0-1.957.034-3.009.1A7.886,7.886,0,0,0-29.353.051C-29.819.017-30.3,0-30.775,0a24.431,24.431,0,0,0-8.04,1.457,34.771,34.771,0,0,0-7.679,3.864A39.976,39.976,0,0,0-53.13,10.83a33.34,33.34,0,0,0-4.912,6.393,24.464,24.464,0,0,0-3.062,12.3A39.448,39.448,0,0,0-58.96,42.173a28.844,28.844,0,0,0,4.3,8.357c2.307,2.933,4.936,4.436,7.813,4.469Z" transform="translate(61.105 41)" fill="#f2f2f2"/>
      </g>
    </g>
    <g id="Group_2" data-name="Group 2" transform="translate(-2782 6833)">
      <g id="Head_Front_Short_1" data-name="Head/Front/Short 1" transform="translate(83 16)">
        <g id="Head" transform="translate(54 31)">
          <path id="Head-2" data-name="Head" d="M0,73,8.262,34.49C3.655,29.081.536,22.452,1.057,15.025c1.5-21.4,31.292-16.692,37.086-5.891s5.107,38.2-2.382,40.129c-2.987.77-9.349-1.116-15.825-5.019L24,73Z" fill="#b28b67"/>
        </g>
        <path id="Hair" d="M8.193,40.048C4.214,37.66,1.184,32.83.284,27.445a20.834,20.834,0,0,1,.468-8.973,23.034,23.034,0,0,1,2.191-5.28C6.62-1.937,21.83-.579,33.211.781c5.542.662,10.177,1.325,12.129.083,1.3,8.165-2.9,14.749-17.675,13.473-3.213,1.8-5.531,5.177-8.358,9.714a6,6,0,0,0-6.386,9.878C11.38,36.1,9.834,38.1,8.195,40.047h0Z" transform="translate(53.887 27.364)" fill="#191847"/>
      </g>
      <g id="Bottom_Standing_Sprint" data-name="Bottom/Standing/Sprint" transform="translate(24 179.213)">
        <path id="Leg" d="M104.05,0C84.926,15.593,92.2,152.3,90.925,154.024,90.074,155.171,0,173.551,0,173.551l2.592,10.581s105.363-5.229,111.5-13.05c8.792-11.2,21.733-125.242,21.733-125.242Z" transform="matrix(0.574, -0.819, 0.819, 0.574, 32.963, 113.02)" fill="#b28b67"/>
        <path id="Pant" d="M0,169.4l4.565,17.041c52.36,6.012,86.878-1.43,99.027-12.987s21.789-124.9,21.789-124.9L91.386,0C45.861,34.346,73,146.78,71.834,149.353S43.057,153.96,0,169.4Z" transform="matrix(0.574, -0.819, 0.819, 0.574, 39.038, 102.707)" fill="#414464"/>
        <g id="Right_Show" data-name="Right Show" transform="translate(177.564 185.841) rotate(20)">
          <path id="shoe" d="M4.474,5.033A2,2,0,0,0,1.908,6.381L0,13.106A64.242,64.242,0,0,0,.9,21H57.3s2.2-7.268-2.538-7.848-7.87-1.047-7.87-1.047L20.68.419a1,1,0,0,0-1.332.532L17.663,5.039s-4.385,2.046-7.127,2.046Z" transform="translate(1 19)" fill="#e4e4e4"/>
        </g>
        <path id="Leg-2" data-name="Leg" d="M102.6,0,50.858,124.227,0,229.25H12L143.278,0Z" transform="translate(3.396 27.787)" fill="#997659"/>
        <g id="Left_Shot" data-name="Left Shot" transform="translate(0 226.787)">
          <path id="shoe-2" data-name="shoe" d="M4.474,5.033A2,2,0,0,0,1.908,6.381L0,13.106A64.242,64.242,0,0,0,.9,21H57.3s2.2-7.268-2.538-7.848-7.87-1.047-7.87-1.047L20.68.419a1,1,0,0,0-1.332.532L17.663,5.039s-4.385,2.046-7.127,2.046Z" transform="translate(1 19)" fill="#e4e4e4"/>
        </g>
        <path id="Pant-2" data-name="Pant" d="M0,207.433l26.662,5C47.277,182.125,133.552,57.852,143.011,0H83.656C52.066,41.821,19.65,176.624,0,207.433Z" transform="translate(7.989 27.787)" fill="#505372"/>
      </g>
      <g id="Body_Jacket_2" data-name="Body/Jacket 2" transform="translate(24 96)">
        <path id="Skin" d="M31.789,116.268c-1.363-2.293-2.913-4.586-7.622-3.416-8.4,2.087-15.528,7.442-23.363.22-.963-.887-1.669-3.663,1.616-5.087C10.6,104.437,22.692,97.8,24.652,95.218Q28.663,89.944,49.508,35L70,39.066Q39.088,96.674,36.845,100.131c-3.365,5.185-.225,14.687.934,19.691a6.313,6.313,0,0,1-1.427.178C33.886,120,32.9,118.134,31.789,116.268ZM196,30.617,232.234,14.7A85.87,85.87,0,0,1,250.623.282c1.768-.563,4.787-.733,1.565,3.974s-6.4,9.8-5.112,11.45,5.017-.171,6.49,2.511q1.474,2.682-18.859,6.417L207.57,45.439Z" transform="translate(0 47)" fill="#b28b67"/>
        <path id="Coat_Back" data-name="Coat Back" d="M0,2.231,8.485,0C28.84,16.559,40.322,59.616,53.332,64.31c12.3,4.438,28.6-2.324,47.89-11.217l7.293,13.1c-16.386,21.165-53.5,41.081-69.953,33C12.253,86.281,1.767,32.855,0,2.231Z" transform="matrix(0.996, 0.087, -0.087, 0.996, 125.889, 3.109)" fill="#69ac6b"/>
        <path id="Shirt" d="M0,114H76.511c3.5,0,2.837-5.048,2.332-7.6C73.011,77,50.241,45.312,50.241,3.461L28.172,0C9.917,29.358,3.6,65.5,0,114Z" transform="translate(88)" fill="#dde3e9"/>
        <path id="Coat_Front" data-name="Coat Front" d="M0,141.859Q15.5,45.756,89.748,0h8.738s29.719,101.306,16.386,135H46c1.09-16.437,4.583-33.819,9.369-50.767q-23.4,42.2-39.332,60.767Z" transform="translate(25)" fill="#81c784"/>
      </g>
    </g>
  </g>
</svg>
