<svg width="48" height="48" viewBox="0 0 48 48" fill="none" xmlns="http://www.w3.org/2000/svg">
<path d="M38.8491 9.16312C36.9025 7.19733 34.5868 5.63552 32.0348 4.56742C29.4829 3.49931 26.745 2.94596 23.9786 2.93915C21.2121 2.93234 18.4716 3.47221 15.9144 4.52774C13.3573 5.58327 11.0338 7.13366 9.07767 9.08984C7.12149 11.046 5.5711 13.3694 4.51557 15.9266C3.46003 18.4838 2.92017 21.2243 2.92697 23.9908C2.93378 26.7572 3.48714 29.4951 4.55524 32.047C5.62335 34.599 7.18516 36.9147 9.15094 38.8612C11.0975 40.827 13.4132 42.3888 15.9652 43.4569C18.5171 44.5251 21.255 45.0784 24.0214 45.0852C26.7879 45.092 29.5284 44.5522 32.0856 43.4966C34.6427 42.4411 36.9662 40.8907 38.9223 38.9345C40.8785 36.9783 42.4289 34.6549 43.4844 32.0977C44.54 29.5406 45.0798 26.8 45.073 24.0336C45.0662 21.2671 44.5129 18.5293 43.4448 15.9774C42.3767 13.4254 40.8149 11.1096 38.8491 9.16312ZM6.00001 24.0122C5.99933 22.4191 6.21056 20.833 6.62813 19.2956C7.31626 20.7769 8.31563 22.0566 8.99532 23.5762C9.87375 25.53 12.2325 24.9881 13.2741 26.7C14.1984 28.2197 13.2113 30.1416 13.9031 31.7316C14.4056 32.8856 15.5906 33.1378 16.4081 33.9816C17.2434 34.8328 17.2256 35.9991 17.3531 37.1091C17.497 38.4132 17.7304 39.706 18.0516 40.9781C18.0516 40.9875 18.0516 40.9978 18.0591 41.0072C11.0438 38.5434 6.00001 31.8562 6.00001 24.0122ZM24 42.0122C22.9948 42.0119 21.9913 41.9278 21 41.7609C21.0103 41.5069 21.015 41.2697 21.0403 41.1047C21.2681 39.6141 22.0144 38.1562 23.0213 37.0406C24.0159 35.94 25.3791 35.1956 26.2191 33.9469C27.0422 32.7281 27.2888 31.0875 26.9494 29.6634C26.4497 27.5597 23.5913 26.8575 22.05 25.7166C21.1641 25.0603 20.3756 24.0459 19.2122 23.9634C18.6759 23.9259 18.2269 24.0412 17.6953 23.9044C17.2078 23.7778 16.8253 23.5153 16.3059 23.5837C15.3356 23.7112 14.7234 24.7481 13.6809 24.6075C12.6919 24.4753 11.6728 23.3175 11.4478 22.3753C11.1591 21.1641 12.1172 20.7712 13.1438 20.6634C13.5722 20.6184 14.0531 20.5697 14.4647 20.7272C15.0066 20.9278 15.2625 21.4584 15.7491 21.7266C16.6613 22.2272 16.8459 21.4275 16.7063 20.6175C16.4972 19.4044 16.2534 18.9103 17.3353 18.075C18.0853 17.4994 18.7266 17.0831 18.6066 16.0491C18.5353 15.4416 18.2025 15.1669 18.5128 14.5622C18.7481 14.1019 19.3941 13.6866 19.815 13.4119C20.9016 12.7031 24.4697 12.7556 23.0119 10.7719C22.5834 10.1897 21.7931 9.14906 21.0431 9.00656C20.1056 8.82937 19.6894 9.87562 19.0359 10.3369C18.3609 10.8141 17.0466 11.3559 16.3706 10.6181C15.4613 9.62531 16.9734 9.29999 17.3081 8.60624C17.4628 8.28281 17.3081 7.83374 17.0475 7.41093C17.3856 7.26843 17.7294 7.13624 18.0788 7.01437C18.2977 7.17609 18.5575 7.27349 18.8288 7.29562C19.4559 7.33687 20.0475 6.99749 20.595 7.42499C21.2025 7.89374 21.6403 8.48624 22.4466 8.63249C23.2266 8.77406 24.0525 8.31937 24.2456 7.52062C24.3628 7.03499 24.2456 6.52218 24.1331 6.02062C27.6394 6.04079 31.0624 7.09085 33.9769 9.04031C33.7894 8.96906 33.5653 8.97749 33.2888 9.10593C32.7197 9.37031 31.9134 10.0434 31.8469 10.7109C31.7709 11.4684 32.8884 11.5753 33.4191 11.5753C34.2159 11.5753 35.0231 11.2191 34.7663 10.2984C34.6547 9.89906 34.5028 9.48374 34.2581 9.23249C34.8463 9.64064 35.4098 10.0833 35.9456 10.5581C35.9372 10.5666 35.9288 10.5741 35.9203 10.5834C35.3803 11.1459 34.7531 11.5912 34.3838 12.2756C34.1231 12.7575 33.8297 12.9862 33.3019 13.1109C33.0113 13.1794 32.6794 13.2047 32.4356 13.3997C31.7569 13.9341 32.1431 15.2184 32.7863 15.6037C33.5991 16.0903 34.8047 15.8616 35.4178 15.1669C35.8969 14.6231 36.1791 13.6791 37.0406 13.68C37.4199 13.6792 37.7843 13.8277 38.055 14.0934C38.4113 14.4628 38.3409 14.8078 38.4169 15.2691C38.5509 16.0884 39.2738 15.6441 39.7134 15.2306C40.0339 15.801 40.3231 16.3884 40.5797 16.9903C40.0959 17.6869 39.7116 18.4462 38.5481 17.6344C37.8516 17.1478 37.4231 16.4419 36.5484 16.2225C35.7844 16.035 35.0016 16.23 34.2469 16.3603C33.3891 16.5094 32.3719 16.575 31.7213 17.2247C31.0922 17.8509 30.7594 18.6891 30.09 19.3181C28.7953 20.5369 28.2488 21.8672 29.0869 23.5903C29.8931 25.2469 31.5797 26.1459 33.3994 26.0278C35.1872 25.9087 37.0444 24.8719 36.9928 27.4697C36.9741 28.3894 37.1663 29.0259 37.4484 29.88C37.71 30.6675 37.6922 31.4306 37.7522 32.2434C37.8092 33.1952 37.9581 34.1393 38.1966 35.0625C36.5162 37.226 34.3636 38.9769 31.9031 40.1814C29.4426 41.3858 26.7395 42.0121 24 42.0122Z" fill="#81C784"/>
</svg>
