<svg width="24" height="24" viewBox="0 0 24 24" fill="none" xmlns="http://www.w3.org/2000/svg">
<path d="M12 22.065C7.333 15.975 5 11.642 5 9.065C5 8.14575 5.18106 7.2355 5.53284 6.38622C5.88463 5.53694 6.40024 4.76527 7.05025 4.11526C7.70026 3.46525 8.47194 2.94963 9.32122 2.59785C10.1705 2.24606 11.0807 2.065 12 2.065C12.9193 2.065 13.8295 2.24606 14.6788 2.59785C15.5281 2.94963 16.2997 3.46525 16.9497 4.11526C17.5998 4.76527 18.1154 5.53694 18.4672 6.38622C18.8189 7.2355 19 8.14575 19 9.065C19 11.642 16.667 15.975 12 22.065ZM12 13.065C13.0609 13.065 14.0783 12.6436 14.8284 11.8934C15.5786 11.1433 16 10.1259 16 9.065C16 8.00414 15.5786 6.98672 14.8284 6.23658C14.0783 5.48643 13.0609 5.065 12 5.065C10.9391 5.065 9.92172 5.48643 9.17157 6.23658C8.42143 6.98672 8 8.00414 8 9.065C8 10.1259 8.42143 11.1433 9.17157 11.8934C9.92172 12.6436 10.9391 13.065 12 13.065Z" fill="#81C784" fill-opacity="0.5"/>
</svg>
