<svg width="56" height="56" viewBox="0 0 56 56" fill="none" xmlns="http://www.w3.org/2000/svg">
<path d="M39.6083 25.6667H39.6667V46.6667C39.6667 47.9043 39.175 49.0913 38.2998 49.9665C37.4247 50.8417 36.2377 51.3333 35 51.3333H21C19.7623 51.3333 18.5753 50.8417 17.7002 49.9665C16.825 49.0913 16.3333 47.9043 16.3333 46.6667V25.6667H16.3917C16.596 23.8528 17.3278 22.1386 18.4963 20.7363L21.0863 17.633C21.7856 16.7931 22.1679 15.7345 22.1667 14.6417V6.99999C22.1667 6.38115 22.4125 5.78766 22.8501 5.35007C23.2877 4.91249 23.8812 4.66666 24.5 4.66666H31.5C32.1188 4.66666 32.7123 4.91249 33.1499 5.35007C33.5875 5.78766 33.8333 6.38115 33.8333 6.99999V14.644C33.8338 15.7355 34.2169 16.7924 34.916 17.6307L37.5037 20.7363C38.6723 22.1386 39.404 23.8528 39.6083 25.6667ZM34.881 25.6667C34.7166 24.9529 34.3865 24.2878 33.9173 23.7253L31.3297 20.6197C29.9319 18.9421 29.1665 16.8276 29.1667 14.644V9.33332H26.8333V14.644C26.833 16.8268 26.0677 18.9404 24.6703 20.6173L22.0803 23.7253C21.6129 24.2883 21.2844 24.9533 21.1213 25.6667H34.8833H34.881ZM35 42H21V46.6667H35V42ZM21 30.3333V37.3333H35V30.3333H21Z" fill="#81C784"/>
</svg>
