<svg width="141" height="37" viewBox="0 0 141 37" fill="none" xmlns="http://www.w3.org/2000/svg">
<path d="M26.6666 9.33334H5.33331L7.86665 28.2C7.93331 28.8667 8.53331 29.3333 9.19998 29.3333H22.8666C23.5333 29.3333 24.0666 28.8667 24.2 28.2L26.6666 9.33334Z" fill="#4CAF50"/>
<path d="M28 9.33332H4V7.33332C4 5.86666 5.2 4.66666 6.66667 4.66666H25.3333C26.8 4.66666 28 5.86666 28 7.33332V9.33332Z" fill="#81C784"/>
<path d="M24.8 6.66666H7.20001L8.33335 3.53332C8.53335 2.99999 9.00001 2.66666 9.60001 2.66666H22.4C22.9333 2.66666 23.4667 2.99999 23.6667 3.53332L24.8 6.66666Z" fill="#81C784"/>
<path d="M18.6667 19C19.4667 18.2667 20 17.2 20 16C20 13.8 18.2 12 16 12C13.8 12 12 13.8 12 16C12 17.2 12.5333 18.2667 13.3333 19C12.5333 19.7333 12 20.8 12 22C12 24.2 13.8 26 16 26C18.2 26 20 24.2 20 22C20 20.8 19.4667 19.7333 18.6667 19ZM16 24C14.8667 24 14 23.1333 14 22C14 20.8667 14.8667 20 16 20C17.1333 20 18 20.8667 18 22C18 23.1333 17.1333 24 16 24ZM16 18C14.8667 18 14 17.1333 14 16C14 14.8667 14.8667 14 16 14C17.1333 14 18 14.8667 18 16C18 17.1333 17.1333 18 16 18Z" fill="#E8F5E9"/>
<path d="M54.0391 10.9688C54.0391 12.1016 53.7188 13.0547 53.0781 13.8281C52.4375 14.5938 51.543 15.1211 50.3945 15.4102L53.5117 21.7969H55.668V24H51.707L47.8047 15.7734H45.332V21.7969H47.582V24H40.2695V21.7969H42.6602V8.54297H40.2695V6.33984H47.6055C49.8789 6.33984 51.5195 6.71094 52.5273 7.45312C53.5352 8.19531 54.0391 9.36719 54.0391 10.9688ZM51.2852 10.9219C51.2852 10.1016 51.0273 9.5 50.5117 9.11719C49.9961 8.73438 49.1797 8.54297 48.0625 8.54297H45.332V13.5586H47.8984C49.0469 13.5586 49.8984 13.3594 50.4531 12.9609C51.0078 12.5625 51.2852 11.8828 51.2852 10.9219ZM69.3672 18.457H59.043C59.1914 19.6367 59.6484 20.5703 60.4141 21.2578C61.1797 21.9375 62.1172 22.2773 63.2266 22.2773C64.0391 22.2773 64.793 22.1094 65.4883 21.7734C66.1836 21.4375 66.7656 20.9219 67.2344 20.2266L69.3672 21.1875C68.6953 22.2344 67.8125 23.0273 66.7188 23.5664C65.6328 24.0977 64.4492 24.3633 63.168 24.3633C61.8398 24.3633 60.6602 24.0859 59.6289 23.5312C58.5977 22.9766 57.793 22.2031 57.2148 21.2109C56.6445 20.2188 56.3594 19.1016 56.3594 17.8594C56.3594 16.625 56.6406 15.5117 57.2031 14.5195C57.7734 13.5273 58.5508 12.7539 59.5352 12.1992C60.5195 11.6367 61.6055 11.3555 62.793 11.3555C64.0898 11.3555 65.2188 11.6445 66.1797 12.2227C67.1484 12.793 67.9102 13.6133 68.4648 14.6836C69.0195 15.7461 69.3203 17.0039 69.3672 18.457ZM62.8398 13.3711C61.9258 13.3711 61.125 13.6797 60.4375 14.2969C59.75 14.9062 59.3086 15.7148 59.1133 16.7227H66.8242C66.5977 15.7148 66.1172 14.9062 65.3828 14.2969C64.6484 13.6797 63.8008 13.3711 62.8398 13.3711ZM80.6992 12.5742V11.6836H82.8555V16.3477H80.6992C80.6055 15.4492 80.2461 14.7656 79.6211 14.2969C78.9961 13.8203 78.2734 13.582 77.4531 13.582C76.75 13.582 76.1172 13.7695 75.5547 14.1445C75 14.5195 74.5703 15.0273 74.2656 15.668C73.9609 16.3086 73.8086 17.0078 73.8086 17.7656C73.8086 19.0547 74.1523 20.1094 74.8398 20.9297C75.5273 21.7422 76.4336 22.1484 77.5586 22.1484C79.3008 22.1484 80.5312 21.3398 81.25 19.7227L83.2656 20.6836C82.1328 23.1367 80.1953 24.3633 77.4531 24.3633C76.2266 24.3633 75.1367 24.0742 74.1836 23.4961C73.2305 22.918 72.4922 22.125 71.9688 21.1172C71.4531 20.1094 71.1953 18.9922 71.1953 17.7656C71.1953 16.5625 71.457 15.4688 71.9805 14.4844C72.5117 13.5 73.2383 12.7344 74.1602 12.1875C75.082 11.6328 76.1094 11.3555 77.2422 11.3555C78.5859 11.3555 79.7383 11.7617 80.6992 12.5742ZM88.9375 13.8516L91.6094 20.8125L94.1992 13.8516H92.5586V11.6836H98.4414V13.8516H96.625L90.543 29.5195H86.4414V27.4102H88.8672L90.332 23.7891L86.3008 13.8516H84.2383V11.6836H90.4023V13.8516H88.9375ZM108.52 12.5742V11.6836H110.676V16.3477H108.52C108.426 15.4492 108.066 14.7656 107.441 14.2969C106.816 13.8203 106.094 13.582 105.273 13.582C104.57 13.582 103.938 13.7695 103.375 14.1445C102.82 14.5195 102.391 15.0273 102.086 15.668C101.781 16.3086 101.629 17.0078 101.629 17.7656C101.629 19.0547 101.973 20.1094 102.66 20.9297C103.348 21.7422 104.254 22.1484 105.379 22.1484C107.121 22.1484 108.352 21.3398 109.07 19.7227L111.086 20.6836C109.953 23.1367 108.016 24.3633 105.273 24.3633C104.047 24.3633 102.957 24.0742 102.004 23.4961C101.051 22.918 100.312 22.125 99.7891 21.1172C99.2734 20.1094 99.0156 18.9922 99.0156 17.7656C99.0156 16.5625 99.2773 15.4688 99.8008 14.4844C100.332 13.5 101.059 12.7344 101.98 12.1875C102.902 11.6328 103.93 11.3555 105.062 11.3555C106.406 11.3555 107.559 11.7617 108.52 12.5742ZM118.609 21.8438V24H112.129V21.8438H114.309V8.47266H112.129V6.33984H116.734V21.8438H118.609ZM133.305 18.457H122.98C123.129 19.6367 123.586 20.5703 124.352 21.2578C125.117 21.9375 126.055 22.2773 127.164 22.2773C127.977 22.2773 128.73 22.1094 129.426 21.7734C130.121 21.4375 130.703 20.9219 131.172 20.2266L133.305 21.1875C132.633 22.2344 131.75 23.0273 130.656 23.5664C129.57 24.0977 128.387 24.3633 127.105 24.3633C125.777 24.3633 124.598 24.0859 123.566 23.5312C122.535 22.9766 121.73 22.2031 121.152 21.2109C120.582 20.2188 120.297 19.1016 120.297 17.8594C120.297 16.625 120.578 15.5117 121.141 14.5195C121.711 13.5273 122.488 12.7539 123.473 12.1992C124.457 11.6367 125.543 11.3555 126.73 11.3555C128.027 11.3555 129.156 11.6445 130.117 12.2227C131.086 12.793 131.848 13.6133 132.402 14.6836C132.957 15.7461 133.258 17.0039 133.305 18.457ZM126.777 13.3711C125.863 13.3711 125.062 13.6797 124.375 14.2969C123.688 14.9062 123.246 15.7148 123.051 16.7227H130.762C130.535 15.7148 130.055 14.9062 129.32 14.2969C128.586 13.6797 127.738 13.3711 126.777 13.3711Z" fill="#81C784"/>
</svg>
