<svg width="80" height="80" viewBox="0 0 80 80" fill="none" xmlns="http://www.w3.org/2000/svg">
<path d="M66.6667 23.3333H13.3333L19.6666 70.5C19.8333 72.1667 21.3333 73.3333 23 73.3333H57.1667C58.8333 73.3333 60.1667 72.1667 60.5 70.5L66.6667 23.3333Z" fill="#4CAF50"/>
<path d="M70 23.3334H10V18.3334C10 14.6667 13 11.6667 16.6667 11.6667H63.3333C67 11.6667 70 14.6667 70 18.3334V23.3334Z" fill="#81C784"/>
<path d="M62 16.6667H18L20.8333 8.83335C21.3333 7.50002 22.5 6.66669 24 6.66669H56C57.3333 6.66669 58.6667 7.50002 59.1667 8.83335L62 16.6667Z" fill="#81C784"/>
<path d="M46.6667 47.5C48.6667 45.6667 50 43 50 40C50 34.5 45.5 30 40 30C34.5 30 30 34.5 30 40C30 43 31.3333 45.6667 33.3333 47.5C31.3333 49.3333 30 52 30 55C30 60.5 34.5 65 40 65C45.5 65 50 60.5 50 55C50 52 48.6667 49.3333 46.6667 47.5ZM40 60C37.1667 60 35 57.8333 35 55C35 52.1667 37.1667 50 40 50C42.8333 50 45 52.1667 45 55C45 57.8333 42.8333 60 40 60ZM40 45C37.1667 45 35 42.8333 35 40C35 37.1667 37.1667 35 40 35C42.8333 35 45 37.1667 45 40C45 42.8333 42.8333 45 40 45Z" fill="#E8F5E9"/>
</svg>
