<svg width="56" height="56" viewBox="0 0 56 56" fill="none" xmlns="http://www.w3.org/2000/svg">
<path d="M47.25 8.75H8.75C7.82206 8.75104 6.93243 9.12013 6.27628 9.77628C5.62013 10.4324 5.25104 11.3221 5.25 12.25V47.25C5.25001 47.5483 5.32627 47.8416 5.47154 48.1022C5.61681 48.3627 5.82627 48.5818 6.08003 48.7386C6.33378 48.8954 6.62341 48.9848 6.92141 48.9982C7.21941 49.0116 7.51589 48.9486 7.78269 48.8152L14 45.7067L20.2173 48.8152C20.4603 48.9367 20.7283 49 21 49C21.2717 49 21.5397 48.9367 21.7827 48.8152L28 45.7067L34.2173 48.8152C34.4603 48.9367 34.7283 48.9999 35 48.9999C35.2717 48.9999 35.5397 48.9367 35.7827 48.8152L42 45.7067L48.2173 48.8152C48.4841 48.9486 48.7806 49.0116 49.0786 48.9982C49.3766 48.9848 49.6662 48.8954 49.92 48.7386C50.1737 48.5818 50.3832 48.3627 50.5285 48.1022C50.6737 47.8416 50.75 47.5483 50.75 47.25V12.25C50.749 11.3221 50.3799 10.4324 49.7237 9.77628C49.0676 9.12013 48.1779 8.75104 47.25 8.75V8.75ZM47.25 44.4185L42.7827 42.1848C42.5397 42.0633 42.2717 42 42 42C41.7283 42 41.4603 42.0633 41.2173 42.1848L35 45.2933L28.7827 42.1848C28.5397 42.0633 28.2717 42.0001 28 42.0001C27.7283 42.0001 27.4603 42.0633 27.2173 42.1848L21 45.2933L14.7827 42.1848C14.5397 42.0633 14.2717 42 14 42C13.7283 42 13.4603 42.0633 13.2173 42.1848L8.75 44.4183V12.25H47.25V44.4185ZM29.75 24.5C29.75 24.0359 29.9344 23.5908 30.2626 23.2626C30.5908 22.9344 31.0359 22.75 31.5 22.75H42C42.4641 22.75 42.9092 22.9344 43.2374 23.2626C43.5656 23.5908 43.75 24.0359 43.75 24.5C43.75 24.9641 43.5656 25.4092 43.2374 25.7374C42.9092 26.0656 42.4641 26.25 42 26.25H31.5C31.0359 26.25 30.5908 26.0656 30.2626 25.7374C29.9344 25.4092 29.75 24.9641 29.75 24.5ZM29.75 31.5C29.75 31.0359 29.9344 30.5907 30.2626 30.2626C30.5908 29.9344 31.0359 29.75 31.5 29.75H42C42.4641 29.75 42.9092 29.9344 43.2374 30.2626C43.5656 30.5907 43.75 31.0359 43.75 31.5C43.75 31.9641 43.5656 32.4092 43.2374 32.7374C42.9092 33.0656 42.4641 33.25 42 33.25H31.5C31.0359 33.25 30.5908 33.0656 30.2626 32.7374C29.9344 32.4092 29.75 31.9641 29.75 31.5ZM14 36.75H24.5C24.9641 36.75 25.4092 36.5656 25.7374 36.2374C26.0656 35.9092 26.25 35.4641 26.25 35V21C26.25 20.5359 26.0656 20.0908 25.7374 19.7626C25.4092 19.4344 24.9641 19.25 24.5 19.25H14C13.5359 19.25 13.0908 19.4344 12.7626 19.7626C12.4344 20.0908 12.25 20.5359 12.25 21V35C12.25 35.4641 12.4344 35.9092 12.7626 36.2374C13.0908 36.5656 13.5359 36.75 14 36.75ZM15.75 22.75H22.75V33.25H15.75V22.75Z" fill="#81C784"/>
</svg>
