<svg width="56" height="60" viewBox="0 0 56 60" fill="none" xmlns="http://www.w3.org/2000/svg">
<path d="M23.3333 47.1908H44.3333C45.0767 47.15 45.8002 46.9205 46.4433 46.5214C47.0864 46.1223 47.6305 45.5653 48.0301 44.8968C48.4298 44.2283 48.6734 43.4678 48.7406 42.6786C48.8079 41.8895 48.6968 41.0947 48.4167 40.3605L47.1333 37.8768M28 42.2233L23.3333 47.1908L28 52.1582V42.2233Z" stroke="#81C784" stroke-width="4.66667" stroke-linecap="round" stroke-linejoin="round"/>
<path d="M18.2093 20.5354L7.70934 39.8936C7.3711 40.5991 7.19628 41.3806 7.19946 42.1727C7.20264 42.9648 7.38373 43.7446 7.72762 44.447C8.0715 45.1495 8.56822 45.7542 9.17632 46.2108C9.78443 46.6673 10.4863 46.9624 11.2233 47.0715L13.8857 47.1311M19.9173 27.321L18.2093 20.5354L11.8347 22.3535L19.9173 27.321Z" stroke="#81C784" stroke-width="4.66667" stroke-linecap="round" stroke-linejoin="round"/>
<path d="M42.4573 29.1391L31.9573 9.78092C31.5523 9.11636 31.0038 8.56456 30.3577 8.17156C29.7115 7.77855 28.9864 7.55574 28.2429 7.52171C27.4994 7.48768 26.759 7.64342 26.0836 7.97594C25.4081 8.30845 24.8171 8.8081 24.36 9.43319L22.981 11.8573M36.0827 27.321L42.4573 29.1391L44.1653 22.3535L36.0827 27.321Z" stroke="#81C784" stroke-width="4.66667" stroke-linecap="round" stroke-linejoin="round"/>
</svg>
